<svg xmlns="http://www.w3.org/2000/svg" xmlns:xlink="http://www.w3.org/1999/xlink"><defs><clipPath id="clip0"><path transform="translate(.08 .92)" d="M0 0h17.04v19.2H0z"/></clipPath><clipPath id="clip0"><path transform="translate(.191 .706)" d="M0 0h12.255v12.285H0z"/></clipPath><clipPath id="clip0"><path transform="translate(0 .79)" d="M0 0h12v12H0z"/></clipPath><clipPath id="clip0"><path transform="translate(0 .262)" d="M0 0h18v17.708H0z"/></clipPath><clipPath id="clip0"><path transform="translate(0 .96)" d="M0 0h20.826v21.12H0z"/></clipPath></defs><symbol id="htmlacademy-logo" viewBox="0 0 60 60"><path d="M30.2 5H30L10.3 7.1v36.2L30 55l19.7-11.7V7.1L30.2 5zm17 36.8L30 52 12.8 41.8V27l17.1 10.2V39l-11.7-7v1.8L30 40.9v1.9l-11.8-7v1.8l11.8 7 11.9-7.1v-7.6l5.3-3.2v15.1zm-.1-17l-4.7 2.8-2.2 1.3-10.3-6.1v1.8l8.8 5.3h-.1l-.2.1-1.3.7-7.3-4.3v1.8l5.8 3.4-1.4.9-4.3-2.6v1.8l2.9 1.7-2.9 1.7-17-10.1 17-10.2 17.2 10zm.1-1.8L29.9 12.8 12.8 23V9.4L30 7.6l17.2 1.8V23z"/></symbol><symbol id="icon-address"><path d="M8.5 0A7.876 7.876 0 00.625 7.875c0 5.058 3.803 7.27 4.644 8.279C7.29 18.577 7.403 21 8.5 21s1.212-2.423 3.23-4.846c.841-1.01 4.645-3.22 4.645-8.279A7.876 7.876 0 008.5 0zm0 13.125a5.25 5.25 0 110-10.5 5.25 5.25 0 010 10.5zm0-7.875a2.626 2.626 0 000 5.25 2.626 2.626 0 000-5.25z"/></symbol><symbol id="icon-arrow"><path d="M3.646 10.354a.5.5 0 00.708 0l3.182-3.182a.5.5 0 10-.708-.708L4 9.293 1.172 6.464a.5.5 0 10-.708.708l3.182 3.182zM3.5 0v10h1V0h-1z"/></symbol><symbol id="icon-bicycle"><path d="M18.308 21a4.21 4.21 0 01-2.363-.727 4.3 4.3 0 01-1.566-1.935 4.368 4.368 0 01-.242-2.492 4.332 4.332 0 011.163-2.208 4.235 4.235 0 012.178-1.18 4.198 4.198 0 012.457.245c.777.327 1.441.88 1.908 1.589a4.356 4.356 0 01-.53 5.443A4.227 4.227 0 0118.308 21zm0-7.125c-.549 0-1.085.165-1.541.474a2.804 2.804 0 00-1.022 1.262 2.85 2.85 0 00-.158 1.625c.107.546.372 1.047.76 1.44a2.738 2.738 0 003.023.61c.506-.213.939-.573 1.243-1.036a2.84 2.84 0 00-.345-3.55 2.758 2.758 0 00-1.96-.825zM6.105 21a4.21 4.21 0 01-2.363-.727 4.3 4.3 0 01-1.566-1.935 4.369 4.369 0 01-.242-2.492 4.331 4.331 0 011.164-2.208 4.235 4.235 0 012.177-1.18 4.198 4.198 0 012.457.245c.777.327 1.441.88 1.908 1.589a4.356 4.356 0 01-.53 5.443A4.227 4.227 0 016.105 21zm0-7.125c-.549 0-1.085.165-1.541.474a2.804 2.804 0 00-1.022 1.262 2.85 2.85 0 00-.158 1.625c.107.546.372 1.047.76 1.44a2.738 2.738 0 003.022.61c.507-.213.94-.573 1.245-1.036a2.84 2.84 0 00-.346-3.55 2.758 2.758 0 00-1.96-.825zM15.164 6a1.456 1.456 0 001.05-.44 1.497 1.497 0 00.43-1.065 1.5 1.5 0 00-.426-1.06A1.457 1.457 0 0015.174 3a1.461 1.461 0 00-1.048.436 1.501 1.501 0 00-.436 1.06 1.518 1.518 0 00.43 1.061A1.478 1.478 0 0015.164 6z"/><path d="M17.362 9H15.34a.183.183 0 01-.163-.097L13.71 6.176a1.447 1.447 0 00-.435-.511 1.422 1.422 0 00-1.847.148l-3.23 3.3c-.27.28-.425.656-.43 1.05 0 .815.583 1.106.856 1.27 1.317.77 2.245 1.332 2.754 1.645a.186.186 0 01.088.16v3.24c0 .404.307.75.704.77a.732.732 0 00.546-.206.75.75 0 00.23-.542v-4.031a.759.759 0 00-.308-.61l-1.71-1.247a.187.187 0 01-.077-.134.19.19 0 01.05-.147l1.941-2.1a.184.184 0 01.239-.027.186.186 0 01.058.064l1.008 1.846a.745.745 0 00.647.386h2.59a.73.73 0 00.535-.232A.751.751 0 0017.362 9z"/></symbol><symbol id="icon-bullet-comment"><circle cx="14" cy="3" r="3"/><path d="M0 2h12v2H0z"/></symbol><symbol id="icon-bus"><g clip-path="url(#clip0)"><path d="M4.34 13.948a1.3 1.3 0 00-.415-.97 1.392 1.392 0 00-1.004-.4c-.392 0-.726.133-1.003.4a1.3 1.3 0 00-.416.97c0 .38.138.702.416.97.277.268.611.402 1.003.402.392 0 .726-.134 1.004-.402.277-.268.415-.59.415-.97zm11.356 0a1.3 1.3 0 00-.416-.97 1.392 1.392 0 00-1.004-.4c-.392 0-.726.133-1.003.4a1.3 1.3 0 00-.416.97c0 .38.139.702.416.97.277.268.611.402 1.003.402.392 0 .727-.134 1.004-.402a1.3 1.3 0 00.416-.97zm-.51-4.242l-.799-4.115a.695.695 0 00-.25-.401.698.698 0 00-.449-.156H3.508c-.17 0-.319.052-.448.156a.695.695 0 00-.25.401l-.798 4.115a.661.661 0 00.155.568c.14.164.322.246.543.246h11.777a.682.682 0 00.543-.246.661.661 0 00.155-.568zm-2.507-6.558a.488.488 0 00-.155-.364.523.523 0 00-.377-.15H5.05a.523.523 0 00-.377.15.488.488 0 00-.155.364.523.523 0 00.532.514h7.097c.148 0 .274-.05.377-.15a.488.488 0 00.155-.364zm4.436 7.768v6.461h-1.42v1.372a1.3 1.3 0 01-.415.97 1.392 1.392 0 01-1.004.4c-.392 0-.726-.133-1.003-.4a1.3 1.3 0 01-.416-.97v-1.372H4.34v1.372c0 .378-.138.701-.415.97a1.392 1.392 0 01-1.004.4c-.392 0-.726-.133-1.003-.4a1.3 1.3 0 01-.416-.97v-1.372H.082v-6.46c0-.8.093-1.597.278-2.39l1.142-4.864c.066-.557.427-1.047 1.08-1.468.655-.422 1.505-.74 2.551-.954C6.18 1.027 7.335.92 8.6.92c1.264 0 2.419.107 3.465.321 1.046.215 1.896.532 2.55.954.655.421 1.015.91 1.082 1.468l1.164 4.864c.17.729.255 1.525.255 2.39z"/></g></symbol><symbol id="icon-businessman"><path d="M23.376 23.242v-3.349c0-.937-.134-1.875-.67-2.812-.536-.938-1.205-1.742-2.143-2.277-.938-.67-2.947-.804-3.884-.804l-2.143 2.277.803 1.741v4.018L14 23.51l-1.34-1.474v-4.018l.938-1.741L11.321 14c-1.071 0-3.08.134-4.018.804-.938.535-1.473 1.339-2.009 2.277-.536.937-.67 1.74-.67 2.812v3.349S8.107 24.715 14 24.715c5.893 0 9.376-1.473 9.376-1.473zM14 3.419c-2.545 0-4.018 2.41-3.616 5.09.401 2.678 1.74 4.554 3.616 4.554 1.875 0 3.215-1.876 3.616-4.554.402-2.813-1.071-5.09-3.616-5.09z"/></symbol><symbol id="icon-calendar-nav"><path d="M8.812.4a1.064 1.064 0 00-.345-.26.958.958 0 00-.814 0c-.13.06-.246.149-.345.26L.248 8.373a.972.972 0 00-.183.31 1.063 1.063 0 000 .732.972.972 0 00.183.31l7.06 7.972a.978.978 0 001.504 0c.416-.47.071-.964-.345-1.434l-3.718-4.178-2.62-3.067 6.692-7.714s.407-.442-.01-.902z"/></symbol><symbol id="icon-call"><path d="M9.774 8.224c0 .189.154.337.342.337a.7.7 0 01.703.696.34.34 0 00.341.337.34.34 0 00.342-.337 1.38 1.38 0 00-1.386-1.37.34.34 0 00-.342.337zm5.558 1.37a.338.338 0 00.341-.337c0-3.031-2.492-5.495-5.557-5.495a.34.34 0 00-.342.338.34.34 0 00.342.337c2.69 0 4.875 2.164 4.875 4.82a.34.34 0 00.34.337z"/><path d="M12.905 9.257a.34.34 0 00.341.337.34.34 0 00.341-.337c0-1.894-1.556-3.433-3.471-3.433a.34.34 0 00-.342.338c0 .189.154.337.342.337 1.54 0 2.789 1.239 2.789 2.758zM10.115 1.7a.34.34 0 00-.34.337.34.34 0 00.34.338c3.841 0 6.965 3.088 6.965 6.882 0 .185.15.337.341.337a.34.34 0 00.341-.337c0-4.168-3.43-7.557-7.646-7.557zm3.336 11.114l-.447.24c-.755.408-1.342 1.527-2.273.684L8.301 11.3 6.2 9.257c-1.055-1.334.126-1.65.54-2.4l.242-.439c.273-.5.372-1.06.29-1.62a2.557 2.557 0 00-.744-1.475 2.636 2.636 0 00-1.868-.762c-.706 0-1.372.27-1.87.762l-.174.176c-.922.911-1.028 2.48-.3 4.424C3 9.78 4.383 11.791 6.2 13.587c2.769 2.737 5.851 4.313 8.063 4.313.874 0 1.615-.246 2.14-.766l.178-.176c.495-.489.772-1.144.775-1.85a2.636 2.636 0 00-.775-1.845 2.683 2.683 0 00-3.13-.45z"/></symbol><symbol id="icon-check-mark"><path d="M7.387 14.18L4 10.5V9c0 .04 0-.04 0 0V7.5l3.377 3.256c.116.122.305.12.42-.001L15 3v3.5l-6.192 6.62.002.002-1.003 1.058a.289.289 0 01-.42 0z"/></symbol><symbol id="icon-checkbox"><rect x=".5" y=".5" width="35" height="35" rx="3.5" stroke="#CBCED9"/><path d="M16.387 24.18L13 20.5V19c0 .04 0-.04 0 0v-1.5l3.377 3.256c.116.122.305.12.42-.001L24 13v3.5l-6.192 6.62.002.002-1.003 1.058a.289.289 0 01-.42 0z"/></symbol><symbol id="icon-checked"><path d="M2.79 8.886L.25 6.125V5c0 .03 0-.03 0 0V3.875l2.533 2.442c.087.091.228.09.315-.001L8.5.5v2.625L3.856 8.091h.001l-.752.794a.217.217 0 01-.315 0z"/></symbol><symbol id="icon-close-white"><g opacity=".3" stroke="#fff" stroke-width="1.7" stroke-linecap="round" stroke-linejoin="round"><path d="M18.875 2.75l-15.75 16.5M3.125 2.75l15.75 16.5"/></g></symbol><symbol id="icon-close"><path d="M14 2L2 14M2 2l12 12" stroke="#192144" stroke-width="2" stroke-linecap="round" stroke-linejoin="round"/></symbol><symbol id="icon-email-1"><path d="M1.017 2.325l6.75 4.23c.226.142.52.21.815.21.295 0 .589-.068.815-.21l6.75-4.23c.44-.276.856-1.35.049-1.35H.969c-.807 0-.392 1.074.048 1.35zm15.335 2.313L9.397 8.867c-.306.187-.52.209-.815.209-.295 0-.51-.022-.815-.21-.306-.186-6.42-3.925-6.92-4.229-.35-.214-.347.037-.347.23v7.658c0 .441.51 1.05.9 1.05h14.4c.39 0 .9-.609.9-1.05V4.868c0-.193.004-.444-.348-.23z"/></symbol><symbol id="icon-email-2"><path fill-rule="evenodd" clip-rule="evenodd" d="M16.14 10.466L11.808 6.5l4.33-3.966-.59-.631L9.25 7.672l-6.299-5.77-.59.632L6.69 6.5l-4.33 3.966.59.631 4.38-4.011L9.25 8.844l1.92-1.758 4.379 4.011.59-.63zM1.575.25C.767.25.111.949.111 1.808v9.384c0 .86.65 1.558 1.465 1.558h15.348c.81 0 1.465-.699 1.465-1.558V1.808c0-.86-.65-1.558-1.465-1.558H1.576z"/></symbol><symbol id="icon-fb"><path d="M7.488 20.77H2.129V11.25H0V6.544h2.066c-.157-2.132.236-3.69 1.195-4.752A4.882 4.882 0 014.896.686 5.15 5.15 0 016.867.294h3.756v4.538H7.669a4.554 4.554 0 00-.197 1.712h3.143v4.707H7.472l.016 9.519zm-4.172-1.107h2.97v-9.518h3.143V7.673H6.286v-.56c0-1.477 0-2.797.785-3.292l.15-.096h2.208V1.401h-2.53a3.876 3.876 0 00-1.497.28c-.472.19-.897.472-1.246.827-.785.907-1.107 2.427-.864 4.53l.079.613H1.179v2.494h2.137v9.518z"/></symbol><symbol id="icon-filter-dottes"><circle cx="1.5" cy="1.5" r="1.5"/><circle cx="8.5" cy="1.5" r="1.5"/><circle cx="15.5" cy="1.5" r="1.5"/></symbol><symbol id="icon-filter"><path d="M7.174 0H15v2H7.174zM7.174 8H15v2H7.174zM0 4h7.826v2H0zM3.913 0H5.87v2H3.913zM3.913 8H5.87v2H3.913zM9.13 4h1.957v2H9.13zM0 0h2.609v2H0zM0 8h2.609v2H0zM12.391 4H15v2h-2.609z"/></symbol><symbol id="icon-heart-chosen"><g clip-path="url(#clip0)"><path d="M3.255 1.474c1.693 0 3.064 1.348 3.064 3.01 0-1.662 1.371-3.01 3.064-3.01s3.064 1.348 3.064 3.01c0 2.505-2.477 3.389-5.828 7.377a.394.394 0 01-.6 0C2.669 7.873.19 6.989.19 4.484c0-1.662 1.372-3.01 3.064-3.01z"/></g></symbol><symbol id="icon-heart"><g clip-path="url(#clip0)"><path fill-rule="evenodd" clip-rule="evenodd" d="M6 5.665l.67-1.41c.167-.349.456-.85.865-1.256.401-.4.883-.671 1.465-.671 1.257 0 2.25 1.044 2.25 2.3 0 .954-.415 1.627-1.401 2.655-.253.263-.54.547-.86.86-.83.82-1.864 1.84-2.989 3.202-1.125-1.363-2.159-2.382-2.99-3.201a44.458 44.458 0 01-.859-.861C1.166 6.255.75 5.582.75 4.628c0-1.256.993-2.3 2.25-2.3.582 0 1.064.272 1.465.67.41.407.698.908.865 1.257L6 5.665zm.294 6.532A.387.387 0 016 12.34a.369.369 0 01-.294-.143c-1.2-1.499-2.288-2.57-3.182-3.451C.975 7.218 0 6.258 0 4.628 0 2.923 1.343 1.54 3 1.54c1.2 0 2.04.827 2.553 1.582.195.287.343.564.447.781.13-.272.28-.533.447-.781C6.961 2.366 7.8 1.54 9 1.54c1.658 0 3 1.383 3 3.088 0 1.63-.975 2.59-2.524 4.118-.895.882-1.981 1.953-3.182 3.45z" opacity=".5"/></g></symbol><symbol id="icon-intg"><g clip-path="url(#clip0)"><path d="M12.96 2.033a3.274 3.274 0 012.29.936c.606.597.948 1.407.95 2.252v7.791a3.169 3.169 0 01-.95 2.252 3.275 3.275 0 01-2.29.936H5.04a3.274 3.274 0 01-2.284-.938 3.169 3.169 0 01-.949-2.25V5.221a3.169 3.169 0 01.949-2.25 3.274 3.274 0 012.284-.938h7.92zm0-1.062H5.04a4.356 4.356 0 00-3.055 1.244A4.215 4.215 0 00.72 5.221v7.791c0 1.127.455 2.208 1.265 3.005a4.356 4.356 0 003.055 1.245h7.92a4.356 4.356 0 003.055-1.245 4.215 4.215 0 001.265-3.005V5.221a4.215 4.215 0 00-1.265-3.006A4.356 4.356 0 0012.96.971z"/><path d="M9.007 5.985c.63 0 1.248.184 1.772.529.525.344.933.835 1.175 1.408a3.09 3.09 0 01.181 1.813 3.123 3.123 0 01-.873 1.607 3.206 3.206 0 01-1.633.858 3.238 3.238 0 01-1.843-.178 3.18 3.18 0 01-1.431-1.156 3.102 3.102 0 01.394-3.964 3.187 3.187 0 011.036-.68 3.228 3.228 0 011.222-.237zm0-1.063a4.32 4.32 0 00-2.374.705A4.216 4.216 0 005.057 7.51a4.137 4.137 0 00-.246 2.428 4.18 4.18 0 001.167 2.152 4.292 4.292 0 002.186 1.152c.829.162 1.687.08 2.468-.238a4.256 4.256 0 001.917-1.547 4.152 4.152 0 00-.525-5.304c-.396-.39-.867-.7-1.384-.91a4.323 4.323 0 00-1.633-.32zM13.428 5.73a.957.957 0 00.965-.948.957.957 0 00-.965-.95.957.957 0 00-.965.95c0 .524.432.949.965.949z"/></g></symbol><symbol id="icon-mail"><path d="M2.017 3.325l6.75 4.23c.226.142.52.21.815.21.295 0 .589-.068.815-.21l6.75-4.23c.44-.276.856-1.35.049-1.35H1.969c-.807 0-.392 1.074.048 1.35zm15.335 2.313l-6.955 4.229c-.306.187-.52.209-.815.209-.295 0-.51-.022-.815-.21-.306-.186-6.42-3.925-6.92-4.229-.35-.214-.347.037-.347.23v7.658c0 .441.51 1.05.9 1.05h14.4c.39 0 .9-.609.9-1.05V5.868c0-.193.004-.444-.348-.23z"/></symbol><symbol id="icon-marker"><circle cx="3" cy="3" r="3"/></symbol><symbol id="icon-nav-to-main"><path fill-rule="evenodd" clip-rule="evenodd" d="M4 16h24a4 4 0 004-4V7a4 4 0 00-4-4H4v2h24a2 2 0 012 2v5a2 2 0 01-2 2H4v2z"/><path d="M0 4L9 .536v6.928L0 4z"/></symbol><symbol id="icon-nav"><path d="M10 8.895l-9.75 8.66V.235L10 8.895z"/></symbol><symbol id="icon-plane"><g clip-path="url(#clip0)"><path d="M16.783 2.093c-.728.173-1.46.347-1.733.824l-2.107 4.199L1.63 9.806l-.458 1.341 8.658.82-1.47 3.634-3.283.78-.824 1.43 2.369.256.27 1.169c.12.414.545.69.908.604l1.095-.26 1.268 2.163.825-1.428-.81-3.505 2.377-3.03 4.536 7.961.914-1.038L15.213 8.63l2.563-3.895c.276-.477.096-1.255-.085-2.036-.09-.387-.545-.691-.908-.605z"/></g></symbol><symbol id="icon-plus"><rect y="8.308" width="18" height="1.385" rx=".692"/><rect x="8.308" y="18" width="18" height="1.385" rx=".692" transform="rotate(-90 8.308 18)"/></symbol><symbol id="icon-polygon"><path d="M12.86 7L.965 13.062V.938L12.86 7z"/></symbol><symbol id="icon-run"><path d="M14.976 5.76c.95 0 1.721-.86 1.721-1.92s-.77-1.92-1.721-1.92c-.95 0-1.721.86-1.721 1.92s.77 1.92 1.72 1.92zM13.923 10.53c.198.329.481.581.812.724.33.142.693.168 1.037.073l2.854-.796-.416-1.862-2.854.796L14.17 7.48a1.735 1.735 0 00-1.094-.82l-3.31-.739a1.56 1.56 0 00-1.094.158c-.34.185-.614.49-.783.867l-1.427 3.183 1.54.86 1.427-3.185 1.692.378-4.377 8.138H2.928v1.92h3.815c.601 0 1.167-.357 1.476-.932L9.87 14.24l4.448.992 1.563 5.231 1.632-.607-1.562-5.23a1.955 1.955 0 00-.495-.833 1.665 1.665 0 00-.801-.444l-2.615-.583 1.525-2.836.358.6z"/></symbol><symbol id="icon-select"><path d="M.638 5.098a.862.862 0 00-.162.275.946.946 0 000 .649.861.861 0 00.162.274l4.96 5.627c.056.063.121.113.193.147a.534.534 0 00.456 0 .594.594 0 00.193-.147l4.96-5.627a.928.928 0 000-1.198c-.293-.332-.6-.057-.892.275l-2.6 2.963L6 10.424 1.2 5.091s-.275-.325-.562.007z" opacity=".3"/></symbol><symbol id="icon-tel-1"><path d="M9.774 8.224c0 .189.154.337.342.337a.7.7 0 01.703.696.34.34 0 00.341.337.34.34 0 00.342-.337 1.38 1.38 0 00-1.386-1.37.34.34 0 00-.342.337zm5.558 1.37a.338.338 0 00.341-.337c0-3.031-2.492-5.495-5.557-5.495a.34.34 0 00-.342.338.34.34 0 00.342.337c2.69 0 4.875 2.164 4.875 4.82a.34.34 0 00.34.337z"/><path d="M12.905 9.257a.34.34 0 00.341.337.34.34 0 00.341-.337c0-1.894-1.556-3.433-3.471-3.433a.34.34 0 00-.342.338c0 .189.154.337.342.337 1.54 0 2.789 1.239 2.789 2.758zM10.115 1.7a.34.34 0 00-.34.337.34.34 0 00.34.338c3.841 0 6.965 3.088 6.965 6.882 0 .185.15.337.341.337a.34.34 0 00.341-.337c0-4.168-3.43-7.557-7.646-7.557zm3.336 11.114l-.447.24c-.755.408-1.342 1.527-2.273.684L8.301 11.3 6.2 9.257c-1.055-1.334.126-1.65.54-2.4l.242-.439c.273-.5.372-1.06.29-1.62a2.557 2.557 0 00-.744-1.475 2.636 2.636 0 00-1.868-.762c-.706 0-1.372.27-1.87.762l-.174.176c-.922.911-1.028 2.48-.3 4.424C3 9.78 4.383 11.791 6.2 13.587c2.769 2.737 5.851 4.313 8.063 4.313.874 0 1.615-.246 2.14-.766l.178-.176c.495-.489.772-1.144.775-1.85a2.636 2.636 0 00-.775-1.845 2.683 2.683 0 00-3.13-.45z"/></symbol><symbol id="icon-tel-2"><path fill-rule="evenodd" clip-rule="evenodd" d="M8.5.086c-2.796 0-5.6.473-6.617 1.415C1.04 2.283.758 3.663.663 4.538c0 0-.013.086-.013.123 0 .343.295.618.654.618.043 0 1.616-.12 2.565-.195.022-.003.045-.006.068-.012.353-.01.638-.281.638-.618l.003-1.217c0-.377.324-.68.723-.68H11.7c.399 0 .723.303.723.68l.003 1.217c0 .337.285.609.638.618.022.006.045.01.069.012.948.074 2.521.195 2.564.195.36 0 .654-.275.654-.618 0-.037-.013-.123-.013-.123-.095-.875-.376-2.255-1.22-3.037C14.1.559 11.297.086 8.5.086zm0 8.032c-.723 0-1.308.553-1.308 1.235 0 .683.585 1.236 1.308 1.236.723 0 1.308-.553 1.308-1.236 0-.682-.585-1.235-1.308-1.235zm-.981-2.78v-.773c0-.426-.367-.772-.818-.772-.451 0-.818.346-.818.772v.773l-4.412 4.45a1.504 1.504 0 00-.494 1.107v1.239c0 .682.586 1.235 1.309 1.235h.327v.772c0 .427.366.773.817.773.452 0 .818-.346.818-.773v-.772h8.504v.772c0 .427.366.773.818.773.451 0 .817-.346.817-.773v-.772h.327c.723 0 1.309-.553 1.309-1.236v-1.238c0-.433-.19-.825-.494-1.106l-4.412-4.451v-.773c0-.426-.367-.772-.818-.772-.451 0-.818.346-.818.772v.773H7.52zM8.5 6.882c1.446 0 2.617 1.106 2.617 2.471 0 1.366-1.171 2.472-2.617 2.472s-2.617-1.106-2.617-2.472c0-1.365 1.171-2.47 2.617-2.47z"/></symbol><symbol id="icon-user"><path opacity=".1" d="M4.375 3.93c0 1.523 1.178 2.763 2.625 2.763s2.625-1.24 2.625-2.763c0-1.524-1.178-2.763-2.625-2.763S4.375 2.407 4.375 3.93zm7.292 8.903h.583v-.614c0-2.37-1.832-4.298-4.083-4.298H5.833c-2.251 0-4.083 1.929-4.083 4.298v.614h9.917z"/></symbol><symbol id="icon-vk"><path d="M21.629 17.75c-.667-.019-1.316-.264-1.879-.709a10.11 10.11 0 01-1.608-1.721c-.397-.495-1.056-1.328-1.31-1.328-.252 0-.433 1.035-.424 1.766.004.505-.148.992-.425 1.362a1.85 1.85 0 01-1.101.562h-1.735c-2.492-.068-4.879-1.268-6.71-3.375C3.112 10.516.257 3.271.14 2.956a1.827 1.827 0 01-.135-.858 1.72 1.72 0 01.27-.807c.345-.358.78-.55 1.229-.54h3.793c.305.055.598.19.858.394.246.205.443.488.57.821.389 1.038.836 2.042 1.336 3.004C9.245 7.22 9.77 7.737 9.96 7.85c.211-1.055.27-2.149.172-3.229a3.71 3.71 0 00-.19-1.44 1.074 1.074 0 00-.696-.326l-.659-.777C8.46 1.336 9.12.695 9.58.448A6.405 6.405 0 0112.425.02h.641a6.666 6.666 0 011.942.225c1.536.405 1.481 1.946 1.418 3.723 0 .518-.045 1.125-.045 1.823v.54a5.73 5.73 0 00.081 1.462 10.04 10.04 0 001.87-2.79 25.153 25.153 0 001.373-3.15c.119-.345.323-.635.583-.827.26-.192.561-.277.862-.241h3.866c.114-.014.229-.014.343 0 .903 0 1.436.326 1.653.956.217.63.154 1.867-2.132 5.186l-.903 1.271a8.277 8.277 0 00-1.12 1.79c.342.484.73.914 1.156 1.282a14.99 14.99 0 012.71 3.454c.178.255.294.568.335.902.042.335.007.677-.1.987-.19.345-.443.627-.738.823-.296.195-.625.3-.96.302l-3.424.057-.207-.045zm-4.796-5.445c.813 0 1.517.889 2.267 1.822.405.551.86 1.042 1.354 1.463.375.31.815.474 1.265.472h.09l3.433-.056c.169-.012.335-.066.487-.158l-.09-.18a13.87 13.87 0 00-2.42-3.06c-1.076-1.125-1.626-1.653-1.69-2.52-.063-.866.443-1.62 1.454-3.048l.904-1.249a12.485 12.485 0 001.851-3.319 4.108 4.108 0 00-.605 0h-3.947a.402.402 0 00-.217 0 25.305 25.305 0 01-1.49 3.431c-1.707 3.173-2.51 3.6-3.08 3.6a.911.911 0 01-.506-.157c-.903-.641-.903-2.07-.849-3.105v-.484c0-.731 0-1.361.045-1.901.073-1.89 0-1.901-.343-2.003a6.256 6.256 0 00-1.68-.18h-.623a9.455 9.455 0 00-1.716.113c.086.08.162.174.226.281.372.732.558 1.587.533 2.453.117 1.856.054 4.275-.904 4.86-.17.099-.355.149-.542.146-.84 0-1.67-.99-3.089-3.668a28.668 28.668 0 01-1.454-3.206l-.072-.112a.957.957 0 00-.29-.124H1.46c.533 1.372 3.062 7.447 5.889 10.631 1.587 1.817 3.644 2.866 5.798 2.959h1.671a.804.804 0 00.244-.113v-.1c0-.304 0-2.926 1.427-3.376a1.28 1.28 0 01.344-.112z"/></symbol><symbol id="logo-footer"><path d="M94.911 6.189C95.637 5.727 96 5.016 96 4.055c0-1.255-.523-2.242-1.568-2.96C93.416.366 92.22 0 90.84 0c-1.35 0-2.584.397-3.701 1.192-1.104.781-1.655 1.825-1.655 3.132 0 .487.152.89.457 1.211.305.308.74.462 1.307.462.551 0 .972-.154 1.263-.462.304-.32.457-.724.457-1.21-.03-.372.094-.75.37-1.135.276-.397.777-.595 1.502-.595.61.012 1.046.166 1.307.46.276.296.4.59.37.885 0 .205-.073.41-.218.615a2.031 2.031 0 01-.457.48c-.145.116-.385.282-.718.5-.334.218-.567.372-.697.462-.755.55-1.133 1.28-1.133 2.19 0 .449.16.827.48 1.135.333.294.776.442 1.328.442.551 0 .987-.148 1.306-.442.334-.308.501-.686.501-1.134 0-.193.036-.372.109-.539.073-.166.189-.32.348-.46.175-.142.32-.257.436-.347.13-.09.32-.205.566-.346.261-.14.443-.243.544-.307zM76.305 10.235l3.857-4.771c.395-.577.932-.897 1.61-.963.678-.078 1.271.085 1.78.491.509.406.749.95.72 1.63v6.834c0 .432-.169.799-.508 1.1-.325.288-.72.432-1.187.432-.466 0-.868-.144-1.207-.432a1.443 1.443 0 01-.488-1.1V9.214l-3.856 4.772c-.396.576-.933.897-1.61.962-.679.079-1.272-.085-1.78-.49-.51-.406-.75-.95-.721-1.63V6.013c0-.432.162-.798.487-1.1a1.758 1.758 0 011.208-.451c.466 0 .862.15 1.187.452.339.3.508.667.508 1.1v4.221z"/><path fill-rule="evenodd" clip-rule="evenodd" d="M58.967 13.389V5.975c0-.426-.178-.793-.535-1.1a1.725 1.725 0 00-1.219-.479 1.7 1.7 0 00-1.198.48c-.342.306-.513.673-.513 1.099v-.18c-.171-.4-.513-.74-1.027-1.019-.513-.293-1.097-.44-1.753-.44-1.284 0-2.467.473-3.55 1.42C48.115 6.7 47.588 8 47.588 9.651c0 1.692.52 3.004 1.56 3.937 1.042.932 2.232 1.399 3.573 1.399.656 0 1.233-.12 1.732-.36.5-.253.863-.553 1.09-.9.086.36.286.66.6.9.313.226.67.34 1.07.34.47 0 .876-.154 1.218-.46.357-.306.535-.68.535-1.12zm-5.47-1.362c1.169 0 2.116-1.026 2.116-2.291 0-1.266-.947-2.291-2.116-2.291S51.38 8.47 51.38 9.735c0 1.266.948 2.292 2.117 2.292z"/><path d="M43.081 8.237V6.094c0-.435.177-.804.53-1.108a1.793 1.793 0 011.236-.475c.47 0 .882.159 1.235.475.353.304.53.673.53 1.108v7.343c0 .435-.177.804-.53 1.108-.338.303-.75.455-1.235.455-.486 0-.905-.152-1.258-.455a1.434 1.434 0 01-.508-1.108v-2.175h-3.817v2.175c0 .435-.177.804-.53 1.108-.338.303-.75.455-1.235.455-.486 0-.905-.152-1.258-.455a1.434 1.434 0 01-.508-1.108V6.094c0-.435.177-.804.53-1.108a1.793 1.793 0 011.236-.475c.47 0 .882.159 1.235.475.353.304.53.673.53 1.108v2.143h3.817zM33.962 4.511c.346 0 .642.131.89.394.247.262.37.867.37 1.234 0 .368-.123.747-.37 1.01-.247.262-.544.354-.89.354h-2.958v5.971c0 1.13-.994 1.526-1.99 1.526-.924 0-1.807-.5-1.807-1.515l.03-8.974h6.725zM12.855 0v13.332c0 .44-.239.812-.57 1.118-.317.307-.815.46-1.27.46-.455 0-1.113-.153-1.444-.46a1.497 1.497 0 01-.476-1.118V3.008H3.772v10.322c0 .44-.165.813-.496 1.12-.317.306-.963.46-1.418.46-.455 0-1.051-.154-1.382-.46A1.497 1.497 0 010 13.33V0h12.855zM24.637 13.365c-1.076 1.01-2.517 1.516-4.322 1.516-1.804 0-3.237-.505-4.298-1.516-1.092-1.026-1.638-2.308-1.638-3.847 0-1.554.546-2.836 1.638-3.847 1.06-1.01 2.494-1.516 4.298-1.516 1.805 0 3.246.505 4.322 1.516 1.077 1.026 1.615 2.308 1.615 3.847 0 1.539-.538 2.821-1.614 3.847zm-2.802-5.43a1.835 1.835 0 00-1.116-.567 2.288 2.288 0 00-1.235.114c-.38.15-.704.407-.973.769-.254.362-.364.784-.333 1.267 0 .634.198 1.162.594 1.584.412.407.926.611 1.543.611.634 0 1.148-.196 1.544-.588.396-.408.594-.943.594-1.607 0-.633-.206-1.161-.618-1.584zM64.022 4.462c2.024 0 7.417.03 7.417.03s.004 6.591.004 8.894c0 .443-.182.824-.546 1.145-.347.305-.662.457-1.191.457-.53 0-.8.04-1.164-.265-.347-.32-.667-.894-.667-1.337v-5.95H65.42c0 4.266 0 5.203-1.57 6.728-.58.55-1.325.824-2.235.824-.546 0-.867-.13-1.214-.436-.347-.32-.617-.832-.617-1.304 0-1.018.213-1.423.76-2.088 1.566 0 1.498-.38 1.4-3.266v-1.83c.017-.443.098-1.602.098-1.602h1.98zM93.16 12.745c0 1.239-1.05 2.243-2.345 2.243-1.295 0-2.344-1.005-2.344-2.243s1.05-2.242 2.344-2.242c1.295 0 2.345 1.004 2.345 2.242z"/></symbol><symbol id="logo"><path d="M94.911 6.189C95.637 5.727 96 5.016 96 4.055c0-1.255-.523-2.242-1.568-2.96C93.416.366 92.22 0 90.84 0c-1.35 0-2.584.397-3.701 1.192-1.104.781-1.655 1.825-1.655 3.132 0 .487.152.89.457 1.211.305.308.74.462 1.307.462.551 0 .972-.154 1.263-.462.304-.32.457-.724.457-1.21-.03-.372.094-.75.37-1.135.276-.397.777-.595 1.502-.595.61.012 1.046.166 1.307.46.276.296.4.59.37.885 0 .205-.073.41-.218.615a2.031 2.031 0 01-.457.48c-.145.116-.385.282-.718.5-.334.218-.567.372-.697.462-.755.55-1.133 1.28-1.133 2.19 0 .449.16.827.48 1.135.333.294.776.442 1.328.442.551 0 .987-.148 1.306-.442.334-.308.501-.686.501-1.134 0-.193.036-.372.109-.539.073-.166.189-.32.348-.46.175-.142.32-.257.436-.347.13-.09.32-.205.566-.346.261-.14.443-.243.544-.307zM76.305 10.235l3.857-4.771c.395-.577.932-.897 1.61-.963.678-.078 1.271.085 1.78.491.509.406.749.95.72 1.63v6.834c0 .432-.169.799-.508 1.1-.325.288-.72.432-1.187.432-.466 0-.868-.144-1.207-.432a1.443 1.443 0 01-.488-1.1V9.214l-3.856 4.772c-.396.576-.933.897-1.61.962-.679.079-1.272-.085-1.78-.49-.51-.406-.75-.95-.721-1.63V6.013c0-.432.162-.798.487-1.1a1.758 1.758 0 011.208-.451c.466 0 .862.15 1.187.452.339.3.508.667.508 1.1v4.221z"/><path fill-rule="evenodd" clip-rule="evenodd" d="M58.967 13.389V5.975c0-.426-.178-.793-.535-1.1a1.725 1.725 0 00-1.219-.479 1.7 1.7 0 00-1.198.48c-.342.306-.513.673-.513 1.099v-.18c-.171-.4-.513-.74-1.027-1.019-.513-.293-1.097-.44-1.753-.44-1.284 0-2.467.473-3.55 1.42C48.115 6.7 47.588 8 47.588 9.651c0 1.692.52 3.004 1.56 3.937 1.042.932 2.232 1.399 3.573 1.399.656 0 1.233-.12 1.732-.36.5-.253.863-.553 1.09-.9.086.36.286.66.6.9.313.226.67.34 1.07.34.47 0 .876-.154 1.218-.46.357-.306.535-.68.535-1.12zm-5.47-1.362c1.169 0 2.116-1.026 2.116-2.291 0-1.266-.947-2.291-2.116-2.291S51.38 8.47 51.38 9.735c0 1.266.948 2.292 2.117 2.292z"/><path d="M43.081 8.237V6.094c0-.435.177-.804.53-1.108a1.793 1.793 0 011.236-.475c.47 0 .882.159 1.235.475.353.304.53.673.53 1.108v7.343c0 .435-.177.804-.53 1.108-.338.303-.75.455-1.235.455-.486 0-.905-.152-1.258-.455a1.434 1.434 0 01-.508-1.108v-2.175h-3.817v2.175c0 .435-.177.804-.53 1.108-.338.303-.75.455-1.235.455-.486 0-.905-.152-1.258-.455a1.434 1.434 0 01-.508-1.108V6.094c0-.435.177-.804.53-1.108a1.793 1.793 0 011.236-.475c.47 0 .882.159 1.235.475.353.304.53.673.53 1.108v2.143h3.817zM33.962 4.511c.346 0 .642.131.89.394.247.262.37.867.37 1.234 0 .368-.123.747-.37 1.01-.247.262-.544.354-.89.354h-2.958v5.971c0 1.13-.994 1.526-1.99 1.526-.924 0-1.807-.5-1.807-1.515l.03-8.974h6.725zM12.855 0v13.332c0 .44-.239.812-.57 1.118-.317.307-.815.46-1.27.46-.455 0-1.113-.153-1.444-.46a1.497 1.497 0 01-.476-1.118V3.008H3.772v10.322c0 .44-.165.813-.496 1.12-.317.306-.963.46-1.418.46-.455 0-1.051-.154-1.382-.46A1.497 1.497 0 010 13.33V0h12.855zM24.637 13.365c-1.076 1.01-2.517 1.516-4.322 1.516-1.804 0-3.237-.505-4.298-1.516-1.092-1.026-1.638-2.308-1.638-3.847 0-1.554.546-2.836 1.638-3.847 1.06-1.01 2.494-1.516 4.298-1.516 1.805 0 3.246.505 4.322 1.516 1.077 1.026 1.615 2.308 1.615 3.847 0 1.539-.538 2.821-1.614 3.847zm-2.802-5.43a1.835 1.835 0 00-1.116-.567 2.288 2.288 0 00-1.235.114c-.38.15-.704.407-.973.769-.254.362-.364.784-.333 1.267 0 .634.198 1.162.594 1.584.412.407.926.611 1.543.611.634 0 1.148-.196 1.544-.588.396-.408.594-.943.594-1.607 0-.633-.206-1.161-.618-1.584zM64.022 4.462c2.024 0 7.417.03 7.417.03s.004 6.591.004 8.894c0 .443-.182.824-.546 1.145-.347.305-.662.457-1.191.457-.53 0-.8.04-1.164-.265-.347-.32-.667-.894-.667-1.337v-5.95H65.42c0 4.266 0 5.203-1.57 6.728-.58.55-1.325.824-2.235.824-.546 0-.867-.13-1.214-.436-.347-.32-.617-.832-.617-1.304 0-1.018.213-1.423.76-2.088 1.566 0 1.498-.38 1.4-3.266v-1.83c.017-.443.098-1.602.098-1.602h1.98zM93.16 12.745c0 1.239-1.05 2.243-2.345 2.243-1.295 0-2.344-1.005-2.344-2.243s1.05-2.242 2.344-2.242c1.295 0 2.345 1.004 2.345 2.242z"/></symbol></svg>